# xmcd CD database file
#
# Track frame offsets:
#	150
#	9016
#	25586
#	35652
#	48518
#	62167
#	73903
#	84938
#	96494
#	109630
#	118810
#	130115
#	138944
#	149707
#	159472
#	170001
#	181689
#	196760
#	207079
#	216678
#	224924
#	235506
#	246313
#	260191
#	271498
#	284016
#	294824
#	305401
#	315217
#	325735
#
# Disc length: 4485 seconds
#
# Revision: 2
# Processed by: cddbd v1.5.2PL0 Copyright (c) Steve Scherf et al.
# Submitted via: CDex 1.79
#
DISCID=c911831e
DTITLE=Jimmy Reed - Petty's Peculiar Picks: The Best Of Tom Petty's Buried Treasure
DYEAR=2014
DGENRE=Blues
TTITLE0=Santo and Johnny - All Night Diner
TTITLE1=Champion Jack Dupree - Can't Kick The Habit
TTITLE2=Wanda Jackson - Fujiyama Mama - 1957
TTITLE3=Coasters - Little Egypt (Ying Yang) - #23 - 1961
TTITLE4=Nappy Brown - The Right Time
TTITLE5=Otis Rush - Homework - 1962
TTITLE6=Bobby "Blue" Bland - Don't Cry No More - #71 - #2R&B - 1961
TTITLE7=Bob Landers with Willie Joe and his Unitar - Cherokee Dance - 1956
TTITLE8=Lowell Fulson - Do Me Right
TTITLE9=Lonesome Sundown - My Home Ain't Here
TTITLE10=Huey "Piano" Smith - Don't You Just Know It - #9 - #4 R&B - 1958
TTITLE11=Arthur Alexander - A Shot Of Rhythm And Blues - 1961
TTITLE12=Link Wray - Jack The Ripper - 1963
TTITLE13=Howlin' Wolf - Down In The Bottom
TTITLE14=Little Richard - Send Me Some Lovin' - #54 - #3 R&B - 1957
TTITLE15=Little Eva - Keep Your Hands Off My Baby - #12 - 1962
TTITLE16=T-Bone Walker - Shufflin' The Blues
TTITLE17=Mose Allison - I Don't Worry About A Thing - 1962
TTITLE18=Earl King - Baby You Can Get Your Gun
TTITLE19=LaVern Baker - Voodoo Voodoo - 1958
TTITLE20=Clarence "Frogman" Henry - Ain't Got No Home - #20 - #3 R&B - 1956
TTITLE21=Roy Montrell - Mellow Saxophone - 1956
TTITLE22=Cadets - Stranded In The Jungle - #15 - #3 R&B  - 1956
TTITLE23=Solomon Burke - Cry To Me - #44 - #5 R&B - 1962
TTITLE24=Slim Harpo - I Got Love If You Want It
TTITLE25=Freddie King - Let Me Be (Stay Away From Me)
TTITLE26=Lonesome Sundown - Don't Go
TTITLE27=Willie Dixon - 29 Ways - 1956
TTITLE28=Elmore James - Done Somebody Wrong - 1960
TTITLE29=Jimmy Reed - I Ain't Got You
EXTD=
EXTT0=
EXTT1=
EXTT2=
EXTT3=
EXTT4=
EXTT5=
EXTT6=
EXTT7=
EXTT8=
EXTT9=
EXTT10=
EXTT11=
EXTT12=
EXTT13=
EXTT14=
EXTT15=
EXTT16=
EXTT17=
EXTT18=
EXTT19=
EXTT20=
EXTT21=
EXTT22=
EXTT23=
EXTT24=
EXTT25=
EXTT26=
EXTT27=
EXTT28=
EXTT29=
PLAYORDER=
